<?xml version="1.0" encoding="UTF-8"?>
<svg id="Vrstva_1" data-name="Vrstva 1" xmlns="http://www.w3.org/2000/svg" viewBox="0 0 245.81 272.17">
  <defs>
    <style>
      .cls-1 {
        fill: #b9aa38;
      }

      .cls-2 {
        fill: #616094;
      }

      .cls-3 {
        fill: #008071;
      }

      .cls-4 {
        fill: #7c7bba;
      }

      .cls-5 {
        fill: #52c6d8;
      }

      .cls-6 {
        fill: #b1d572;
      }

      .cls-7 {
        fill: #eab336;
      }
    </style>
  </defs>
  <path class="cls-3" d="M28.27,130.47c.58.03,1.15.05,1.73.05h.2s-.21,0-.21,0h0c-.58,0-1.15-.02-1.73-.05M28.2,130.47h0s0,0,0,0h0ZM10.65,123.45c2.33,1.97,4.88,3.52,7.57,4.67-2.76-1.18-5.31-2.76-7.57-4.67M10.62,123.42h0s0,0,0,0h0ZM3.5,114.59c.68,1.28,1.46,2.52,2.33,3.71-.86-1.17-1.64-2.41-2.33-3.71M3.47,114.53l.02.04-.02-.04h0ZM3.16,87.11l-.03.05.03-.05h0ZM6.34,82.07c-1.24,1.59-2.3,3.28-3.18,5.03.89-1.79,1.96-3.47,3.18-5.03M6.38,82.02l-.04.05.04-.05h0ZM10.06,78.11h-.01s.01,0,.01,0h0ZM17.31,73.33c-2.57,1.2-5,2.78-7.21,4.74,2.15-1.91,4.58-3.51,7.21-4.74M17.37,73.3h-.01s.01,0,.01,0h0Z"/>
  <path class="cls-4" d="M121.92,150.02h0s-19.5-19.5-19.5-19.5l-30-30-21.21,21.21c-5.81,5.81-13.4,8.73-21.01,8.79h-.2c-.58,0-1.15-.02-1.73-.05h-.06s0,0,0,0c-.86-.05-1.71-.14-2.56-.26-.74-.11-1.48-.26-2.21-.42-.1-.02-.21-.04-.31-.06-.75-.18-1.5-.39-2.24-.63-.08-.03-.16-.04-.24-.07-.82-.27-1.62-.57-2.42-.91-2.69-1.14-5.24-2.7-7.57-4.67l-.02-.02h0c-.56-.48-1.11-.98-1.64-1.51l.08.07,70.44,70.45h0c5.83,5.73,13.43,8.6,21.03,8.6s15.35-2.93,21.21-8.79c11.66-11.65,11.71-30.5.18-42.23h0ZM8.79,79.31l.19-.19-.19.19c-.34.34-.67.69-1,1.04-.49.54-.96,1.09-1.41,1.67l-.04.05h0s-.04.06-.06.09c.1-.13.22-.25.32-.38.68-.85,1.4-1.68,2.18-2.46h0ZM2.95,87.58c.12-.25.23-.5.36-.74-.05.09-.11.18-.15.27h0s-.03.06-.03.06c-.23.47-.45.93-.66,1.41-.15.35-.26.71-.4,1.06.27-.69.55-1.38.87-2.05h0ZM0,100.52c0-1.09.07-2.17.19-3.25-.12,1.08-.19,2.17-.19,3.25h0ZM.19,97.27c.04-.35.11-.7.16-1.05-.05.35-.12.69-.16,1.05H.19ZM.35,96.22c.1-.73.22-1.46.38-2.18-.16.72-.27,1.45-.38,2.18H.35ZM.72,94.04c.09-.41.21-.81.31-1.22-.11.41-.23.81-.31,1.22h0ZM1.04,92.83c.17-.66.36-1.31.58-1.95-.22.65-.4,1.3-.58,1.95h0ZM1.61,90.87c.14-.42.3-.83.46-1.24-.16.41-.32.82-.46,1.24h0ZM3.31,86.84c.33-.64.69-1.28,1.07-1.9-.38.62-.74,1.26-1.07,1.9h0ZM4.38,84.93c.1-.16.19-.33.29-.49-.1.16-.19.33-.29.49h0ZM4.67,84.44c.5-.78,1.03-1.54,1.61-2.29-.58.74-1.11,1.51-1.61,2.29h0Z"/>
  <path class="cls-5" d="M121.74,8.78c-5.86-5.86-13.53-8.78-21.21-8.78s-15.19,2.87-21.03,8.6h0S9.01,79.09,9.01,79.09l-.03.03c.35-.34.71-.68,1.07-1h.01s.04-.05.04-.05c2.21-1.96,4.64-3.54,7.21-4.74l.04-.02h.01c.99-.47,2-.87,3.03-1.21.18-.06.38-.1.56-.16.85-.27,1.71-.52,2.57-.71.29-.07.6-.09.9-.15.76-.14,1.53-.29,2.3-.37.81-.09,1.64-.11,2.47-.14.27,0,.53-.04.79-.04,7.68,0,15.35,2.93,21.21,8.79l21.21,21.21,30-30,19.5-19.5h0c11.53-11.73,11.47-30.59-.18-42.24h0ZM3.16,113.91c-.13-.25-.25-.5-.37-.76.02.05.04.1.06.15.2.42.4.83.62,1.24l.02.04v.02c.04.06.08.12.11.17-.15-.28-.29-.57-.44-.85h0ZM5.91,118.4s-.06-.07-.09-.11c0,0,0,0,0,.01.37.5.76.99,1.16,1.47.04.05.09.1.14.15-.42-.5-.83-1-1.21-1.52h0ZM8.79,121.73c-.06-.06-.11-.12-.16-.18.06.06.11.12.16.18l.19.19-.19-.19h0ZM8.62,121.56c-.52-.53-1.03-1.08-1.5-1.64.48.56.98,1.11,1.5,1.64h0ZM5.82,118.29c-.42-.57-.82-1.16-1.19-1.75.38.59.77,1.18,1.19,1.75h0ZM4.63,116.54c-.09-.14-.17-.28-.25-.43.09.14.16.29.25.43h0ZM4.38,116.11c-.27-.44-.53-.89-.78-1.35.25.46.51.9.78,1.35h0ZM2.79,113.15c-.41-.88-.76-1.77-1.08-2.68.32.91.67,1.8,1.08,2.68h0ZM1.71,110.47c-.06-.17-.12-.33-.17-.5.06.17.11.33.17.5h0ZM1.53,109.97c-.3-.9-.55-1.81-.76-2.73.21.92.47,1.83.76,2.73h0ZM.77,107.24c-.04-.16-.07-.33-.11-.49.03.16.07.33.11.49h0ZM.66,106.75c-.2-.94-.36-1.89-.47-2.84.11.95.27,1.9.47,2.84h0ZM.2,103.91c-.01-.12-.02-.23-.03-.35.01.12.02.24.03.35H.2ZM0,100.52c0,1.01.06,2.02.16,3.03-.1-1.01-.16-2.02-.16-3.03h0Z"/>
  <path class="cls-2" d="M30,70.52c-4.32,0-8.64.93-12.63,2.78h-.01s-.04.03-.04.03c-2.63,1.23-5.06,2.83-7.21,4.74l-.04.04h-.01c-.36.33-.72.67-1.07,1.01l-.19.19c-.87.86-1.67,1.77-2.4,2.71l-.04.05h0c-1.22,1.57-2.29,3.25-3.18,5.04h0s-.03.06-.03.06c-2.09,4.2-3.13,8.78-3.13,13.36,0,4.82,1.16,9.64,3.47,14.01l.02.04v.02c.7,1.29,1.48,2.54,2.34,3.71.89,1.2,1.87,2.35,2.96,3.44l.19.19c.53.52,1.08,1.02,1.64,1.5h0s.02.03.02.03c2.26,1.91,4.81,3.49,7.57,4.67,3.19,1.36,6.57,2.14,9.98,2.35h0s.06,0,.06,0c.57.03,1.15.05,1.73.05h.21c7.61-.05,15.2-2.98,21.01-8.79l21.21-21.21-21.21-21.21c-5.86-5.86-13.53-8.79-21.21-8.79"/>
  <path class="cls-6" d="M245.81,171.64c0-1.09-.07-2.17-.19-3.25.12,1.08.19,2.17.19,3.25h0ZM245.62,168.39c-.04-.35-.11-.69-.16-1.04.05.35.12.69.16,1.04h0ZM245.46,167.35c-.11-.73-.22-1.46-.38-2.18.16.72.27,1.45.38,2.18h0ZM245.08,165.16c-.09-.41-.21-.8-.31-1.21.11.4.22.8.31,1.21h0ZM244.77,163.96c-.17-.66-.36-1.32-.58-1.97.22.65.41,1.31.58,1.97h0ZM244.19,161.99c-.14-.41-.3-.82-.46-1.23.16.41.32.81.46,1.23h0ZM243.73,160.77c-.14-.35-.25-.72-.4-1.07-.21-.48-.43-.95-.66-1.41l-.03-.05h0c-.04-.09-.1-.18-.15-.26.12.24.23.48.35.72.33.68.61,1.38.88,2.08h0ZM239.21,152.89c.11.13.22.26.32.39-.02-.03-.04-.06-.06-.09h0s-.04-.05-.04-.05c-.45-.57-.92-1.13-1.41-1.67-.32-.35-.66-.7-1-1.04l-.19-.19.19.19c.79.79,1.51,1.62,2.19,2.46h0ZM239.53,153.28c.58.74,1.11,1.5,1.61,2.28-.5-.78-1.03-1.54-1.61-2.28h0ZM241.14,155.57c.1.15.18.31.28.47-.1-.16-.18-.32-.28-.47h0ZM241.41,156.04c.39.63.75,1.28,1.09,1.93-.34-.65-.7-1.3-1.09-1.93h0ZM236.75,193.12l.07-.07c-.53.52-1.08,1.02-1.64,1.5h0s-.03.03-.03.03c-2.33,1.97-4.88,3.52-7.57,4.67-.79.34-1.6.64-2.42.91-.08.02-.16.04-.23.07-.74.24-1.49.45-2.25.63-.1.02-.2.03-.3.06-.74.17-1.48.31-2.23.42-.84.12-1.69.21-2.55.26h0s-.06,0-.06,0c-.58.03-1.15.05-1.73.05h-.2c-7.61-.05-15.2-2.98-21.01-8.79l-21.21-21.21-30,30-19.5,19.5h0c-11.53,11.73-11.47,30.59.18,42.24,5.86,5.86,13.53,8.79,21.21,8.79s15.19-2.87,21.03-8.6h0s70.44-70.44,70.44-70.44h0Z"/>
  <path class="cls-7" d="M239.88,189.54c-.38.51-.78,1.01-1.2,1.5.04-.05.09-.1.14-.15.4-.48.79-.97,1.16-1.47,0,0,0-.01.01-.02-.04.05-.07.09-.11.14h0ZM242.65,185.03c-.14.28-.28.57-.43.85.03-.06.07-.11.1-.17v-.02s.03-.04.03-.04c.22-.41.42-.82.62-1.24.02-.05.04-.1.06-.14-.12.25-.24.51-.37.76h0ZM245.81,171.64c0,1.01-.06,2.03-.17,3.04.1-1.01.17-2.02.17-3.04h0ZM245.64,174.68c-.01.12-.02.23-.03.35.01-.12.02-.23.03-.35h0ZM245.61,175.03c-.11.96-.27,1.91-.47,2.85.2-.94.36-1.9.47-2.85h0ZM245.14,177.88c-.03.16-.07.32-.1.48.04-.16.07-.32.1-.48h0ZM245.04,178.36c-.21.92-.47,1.84-.77,2.75.3-.91.56-1.82.77-2.75h0ZM244.27,181.1c-.05.16-.11.32-.17.48.06-.16.11-.32.17-.48h0ZM244.1,181.59c-.32.91-.68,1.81-1.09,2.69.41-.88.77-1.78,1.09-2.69h0ZM242.21,185.88c-.25.46-.52.91-.79,1.36.27-.45.54-.9.79-1.36h0ZM241.43,187.24c-.08.14-.16.28-.25.42.09-.14.16-.28.25-.42h0ZM241.18,187.66c-.37.59-.77,1.18-1.19,1.75.42-.57.82-1.15,1.19-1.75h0ZM238.68,191.04c-.47.56-.98,1.1-1.5,1.63.52-.53,1.02-1.08,1.5-1.63h0ZM237.19,192.68c-.06.06-.11.12-.17.18l-.19.19.19-.19c.06-.06.11-.12.16-.18h0ZM235.76,149.24c.36.32.72.66,1.07,1l-.03-.03-70.49-70.49h0c-5.83-5.73-13.43-8.6-21.03-8.6s-15.35,2.93-21.21,8.78c-11.65,11.65-11.71,30.51-.18,42.24h0s19.5,19.5,19.5,19.5l30,30,21.21-21.21c5.86-5.86,13.54-8.79,21.21-8.79.29,0,.58.04.87.05.8.02,1.61.05,2.39.13.78.08,1.54.23,2.31.38.29.06.6.08.89.15.87.19,1.73.44,2.58.71.18.06.37.09.55.16,1.03.35,2.04.75,3.03,1.21h.01s.04.03.04.03c2.57,1.2,5,2.78,7.21,4.74l.04.04h.01Z"/>
  <path class="cls-1" d="M215.81,141.64c4.31,0,8.63.93,12.63,2.78h.01s.04.03.04.03c2.64,1.23,5.06,2.83,7.21,4.74l.04.04h.01c.36.33.72.67,1.07,1.01l.19.19c.87.87,1.67,1.77,2.4,2.71l.04.05h0c1.22,1.57,2.29,3.25,3.18,5.04h0s.03.06.03.06c2.09,4.2,3.13,8.78,3.13,13.36,0,4.82-1.16,9.64-3.47,14.01l-.02.04v.02c-.7,1.29-1.48,2.54-2.34,3.71-.89,1.2-1.87,2.35-2.96,3.44l-.19.19c-.53.52-1.08,1.02-1.64,1.5h0s-.03.03-.03.03c-2.26,1.91-4.81,3.49-7.57,4.67-3.19,1.36-6.57,2.14-9.98,2.35h0s-.06,0-.06,0c-.57.03-1.14.05-1.72.05h-.21c-7.61-.05-15.21-2.98-21.01-8.79l-21.21-21.21,21.21-21.21c5.86-5.86,13.54-8.79,21.21-8.79"/>
</svg>